<svg width="586" height="587" viewBox="0 0 586 587" fill="none" xmlns="http://www.w3.org/2000/svg">
<path d="M434.288 420.779L433.961 421.132L434.301 421.472L434.977 422.148C435.172 422.343 435.489 422.343 435.684 422.148L440.38 426.844C440.185 427.039 440.185 427.355 440.38 427.551L444.432 431.603C444.627 431.798 444.944 431.798 445.139 431.603L447.134 433.598C446.939 433.793 446.939 434.109 447.134 434.305L448.485 435.655C448.68 435.851 448.996 435.851 449.192 435.655L453.888 440.352C453.692 440.547 453.692 440.863 453.888 441.059L457.94 445.111C458.135 445.306 458.452 445.306 458.647 445.111L460.642 447.105C460.446 447.301 460.446 447.617 460.642 447.813L461.992 449.163C462.188 449.359 462.504 449.359 462.7 449.163L467.396 453.859C467.2 454.055 467.2 454.371 467.396 454.566L471.448 458.619C471.643 458.814 471.96 458.814 472.155 458.619L474.15 460.613C473.954 460.809 473.954 461.125 474.15 461.32L475.5 462.671C475.696 462.867 476.012 462.867 476.207 462.671L480.903 467.367C480.708 467.563 480.708 467.879 480.903 468.074L484.956 472.127C485.151 472.322 485.468 472.322 485.663 472.127L487.657 474.121C487.462 474.316 487.462 474.633 487.657 474.828L489.008 476.179C489.203 476.374 489.52 476.374 489.715 476.179L494.411 480.875C494.216 481.07 494.216 481.387 494.411 481.582L498.464 485.635C498.659 485.83 498.976 485.83 499.171 485.635L501.165 487.629C500.97 487.824 500.97 488.141 501.165 488.336L502.516 489.687C502.711 489.882 503.028 489.882 503.223 489.687L507.919 494.383C507.724 494.578 507.724 494.895 507.919 495.09L511.972 499.143C512.167 499.338 512.483 499.338 512.679 499.143L514.673 501.137C514.478 501.332 514.478 501.649 514.673 501.844L516.024 503.195C516.219 503.39 516.536 503.39 516.731 503.195L521.427 507.891C521.232 508.086 521.232 508.403 521.427 508.598L525.479 512.65C525.675 512.846 525.991 512.846 526.187 512.65L528.181 514.645C527.986 514.84 527.986 515.157 528.181 515.352L529.532 516.703C529.727 516.898 530.044 516.898 530.239 516.703L534.935 521.399C534.74 521.594 534.74 521.911 534.935 522.106L538.987 526.158C539.183 526.354 539.499 526.354 539.694 526.158L541.689 528.153C541.494 528.348 541.494 528.665 541.689 528.86L543.04 530.211C543.235 530.406 543.552 530.406 543.747 530.211L548.443 534.907C548.248 535.102 548.248 535.419 548.443 535.614L552.495 539.666C552.69 539.861 553.007 539.861 553.202 539.666L555.197 541.661C555.002 541.856 555.002 542.172 555.197 542.368L556.548 543.719C556.743 543.914 557.059 543.914 557.255 543.719L561.951 548.415C561.755 548.61 561.755 548.926 561.951 549.122L566.003 553.174C566.198 553.369 566.515 553.369 566.71 553.174L568.705 555.169C568.509 555.364 568.509 555.68 568.705 555.876L570.055 557.226C570.251 557.422 570.567 557.422 570.763 557.226L575.459 561.922C575.263 562.118 575.263 562.434 575.459 562.63L579.511 566.682C579.706 566.877 580.023 566.877 580.218 566.682L582.213 568.676C582.017 568.872 582.017 569.188 582.213 569.383L582.888 570.059C582.894 570.065 582.9 570.07 582.906 570.076C583.077 570.248 583.24 570.427 583.394 570.611C583.568 570.82 583.875 570.851 584.087 570.684C585.161 572.128 585.784 573.869 585.924 575.662C585.653 575.676 585.443 575.903 585.45 576.175C585.492 577.672 585.18 579.187 584.497 580.566C584.376 580.809 584.473 581.104 584.712 581.23C584.361 581.854 583.934 582.447 583.43 582.996C583.236 582.808 582.926 582.808 582.732 582.999C582.678 583.051 582.624 583.103 582.569 583.154C582.441 583.275 582.308 583.392 582.17 583.506L582.114 583.553L582.074 583.614C582.01 583.71 581.942 583.804 581.872 583.895C581.708 584.107 581.74 584.409 581.943 584.581C581.471 585.086 580.912 585.492 580.308 585.815C580.19 585.574 579.9 585.469 579.653 585.58C578.993 585.879 578.284 586.085 577.583 586.211C577.315 586.26 577.136 586.513 577.178 586.781C577.001 586.805 576.825 586.823 576.652 586.838C576.636 586.567 576.407 586.358 576.135 586.368C576.012 586.373 575.89 586.375 575.771 586.375C575.652 586.375 575.532 586.373 575.413 586.368C575.141 586.358 574.912 586.566 574.895 586.835C574.236 586.774 573.578 586.641 572.92 586.415C573.015 586.163 572.892 585.879 572.641 585.776C572.024 585.523 571.403 585.178 570.778 584.721C570.558 584.56 570.25 584.605 570.086 584.82C569.955 584.716 569.824 584.606 569.694 584.491C569.877 584.291 569.866 583.979 569.668 583.792C569.581 583.709 569.494 583.624 569.406 583.537L568.731 582.862C568.536 582.667 568.219 582.667 568.024 582.862L563.328 578.166C563.523 577.97 563.523 577.654 563.328 577.459L559.275 573.406C559.08 573.211 558.764 573.211 558.568 573.406L556.574 571.412C556.769 571.216 556.769 570.9 556.574 570.705L555.223 569.354C555.028 569.159 554.711 569.159 554.516 569.354L549.82 564.658C550.015 564.463 550.015 564.146 549.82 563.951L545.767 559.898C545.572 559.703 545.256 559.703 545.06 559.898L543.066 557.904C543.261 557.709 543.261 557.392 543.066 557.197L541.715 555.846C541.52 555.651 541.203 555.651 541.008 555.846L536.312 551.15C536.507 550.955 536.507 550.638 536.312 550.443L532.26 546.39C532.064 546.195 531.748 546.195 531.552 546.39L529.558 544.396C529.753 544.201 529.753 543.884 529.558 543.689L528.207 542.338C528.012 542.143 527.695 542.143 527.5 542.338L522.804 537.642C522.999 537.447 522.999 537.13 522.804 536.935L518.752 532.883C518.556 532.687 518.24 532.687 518.045 532.883L516.05 530.888C516.245 530.693 516.245 530.376 516.05 530.181L514.699 528.83C514.504 528.635 514.188 528.635 513.992 528.83L509.296 524.134C509.491 523.939 509.491 523.622 509.296 523.427L505.244 519.375C505.049 519.179 504.732 519.179 504.537 519.375L502.542 517.38C502.738 517.185 502.738 516.868 502.542 516.673L501.191 515.322C500.996 515.127 500.68 515.127 500.484 515.322L495.788 510.626C495.984 510.431 495.984 510.114 495.788 509.919L491.736 505.867C491.541 505.672 491.224 505.672 491.029 505.867L489.034 503.872C489.23 503.677 489.23 503.361 489.034 503.165L487.684 501.814C487.488 501.619 487.172 501.619 486.977 501.814L482.28 497.118C482.476 496.923 482.476 496.607 482.28 496.411L478.228 492.359C478.033 492.164 477.716 492.164 477.521 492.359L475.526 490.364C475.722 490.169 475.722 489.853 475.526 489.657L474.176 488.307C473.98 488.111 473.664 488.111 473.469 488.307L468.773 483.611C468.968 483.415 468.968 483.099 468.773 482.903L464.72 478.851C464.525 478.656 464.208 478.656 464.013 478.851L462.019 476.857C462.214 476.661 462.214 476.345 462.019 476.149L460.668 474.799C460.473 474.603 460.156 474.603 459.961 474.799L455.265 470.103C455.46 469.907 455.46 469.591 455.265 469.396L451.212 465.343C451.017 465.148 450.7 465.148 450.505 465.343L448.511 463.349C448.706 463.153 448.706 462.837 448.511 462.642L447.16 461.291C446.965 461.096 446.648 461.096 446.453 461.291L441.757 456.595C441.952 456.4 441.952 456.083 441.757 455.888L437.704 451.835C437.509 451.64 437.193 451.64 436.997 451.835L435.003 449.841C435.198 449.646 435.198 449.329 435.003 449.134L433.652 447.783C433.457 447.588 433.14 447.588 432.945 447.783L428.249 443.087C428.444 442.892 428.444 442.575 428.249 442.38L424.197 438.327C424.001 438.132 423.685 438.132 423.489 438.327L421.495 436.333C421.69 436.138 421.69 435.821 421.495 435.626L420.82 434.95L420.48 434.611L420.127 434.936C419.872 435.171 419.617 435.405 419.362 435.639C419.158 435.825 419.144 436.141 419.33 436.345C417.522 437.991 415.696 439.606 413.851 441.191C413.672 440.982 413.356 440.957 413.146 441.137C411.567 442.488 409.974 443.817 408.369 445.123C408.155 445.297 408.122 445.612 408.296 445.826C407.478 446.489 406.657 447.146 405.832 447.797C405.661 447.58 405.347 447.543 405.13 447.714C404.586 448.141 404.041 448.567 403.494 448.989C403.276 449.158 403.235 449.472 403.404 449.69C401.469 451.18 399.516 452.639 397.547 454.065C397.386 453.842 397.073 453.791 396.85 453.953C395.164 455.169 393.467 456.361 391.758 457.531C391.53 457.687 391.472 457.997 391.628 458.225C390.757 458.819 389.883 459.406 389.007 459.987C388.855 459.757 388.545 459.694 388.314 459.846C388.019 460.041 387.723 460.235 387.427 460.429C387.145 460.613 386.862 460.797 386.579 460.981C386.348 461.131 386.282 461.44 386.432 461.672C384.379 462.996 382.312 464.289 380.229 465.548C380.086 465.312 379.779 465.236 379.543 465.378C377.764 466.45 375.973 467.497 374.173 468.521C373.933 468.657 373.849 468.962 373.985 469.202C373.069 469.721 372.15 470.233 371.229 470.74C371.096 470.498 370.792 470.409 370.55 470.541C369.943 470.873 369.335 471.202 368.726 471.529C368.483 471.659 368.391 471.962 368.521 472.205C366.368 473.354 364.201 474.47 362.021 475.552C361.899 475.305 361.599 475.204 361.351 475.326C359.49 476.246 357.619 477.141 355.739 478.013C355.488 478.129 355.379 478.426 355.495 478.676C354.539 479.117 353.58 479.551 352.62 479.98C352.508 479.728 352.212 479.614 351.96 479.726C351.328 480.006 350.695 480.284 350.061 480.559C349.807 480.668 349.691 480.963 349.801 481.216C347.559 482.182 345.307 483.115 343.043 484.013C342.942 483.757 342.652 483.631 342.395 483.732C340.464 484.494 338.525 485.232 336.579 485.944C336.32 486.039 336.187 486.326 336.281 486.585C335.292 486.945 334.301 487.299 333.309 487.646C333.218 487.386 332.933 487.248 332.672 487.339C332.019 487.566 331.365 487.79 330.71 488.011C330.449 488.1 330.309 488.383 330.397 488.645C328.084 489.422 325.762 490.165 323.432 490.873C323.352 490.609 323.073 490.46 322.809 490.54C320.822 491.139 318.829 491.714 316.83 492.264C316.564 492.337 316.408 492.612 316.48 492.878C315.465 493.155 314.449 493.425 313.431 493.689C313.361 493.422 313.089 493.262 312.822 493.33C312.152 493.503 311.481 493.672 310.81 493.839C310.543 493.906 310.379 494.177 310.446 494.444C308.077 495.028 305.702 495.577 303.32 496.091C303.263 495.821 302.997 495.649 302.727 495.707C300.698 496.14 298.664 496.549 296.627 496.932C296.355 496.983 296.177 497.244 296.228 497.515C295.193 497.707 294.157 497.893 293.12 498.073C293.074 497.801 292.815 497.618 292.543 497.664C291.862 497.781 291.18 497.895 290.498 498.005C290.225 498.05 290.04 498.306 290.084 498.579C287.676 498.965 285.264 499.316 282.847 499.632C282.812 499.358 282.561 499.165 282.288 499.201C280.23 499.466 278.17 499.705 276.107 499.919C275.832 499.947 275.633 500.193 275.661 500.467C274.614 500.574 273.567 500.673 272.519 500.767C272.495 500.492 272.252 500.288 271.977 500.312C271.289 500.372 270.6 500.429 269.91 500.484C269.635 500.505 269.43 500.746 269.451 501.021C267.02 501.207 264.587 501.358 262.152 501.474C262.139 501.198 261.906 500.985 261.63 500.998C259.558 501.092 257.485 501.161 255.411 501.204C255.135 501.209 254.916 501.438 254.922 501.713C253.869 501.733 252.817 501.746 251.765 501.753C251.764 501.477 251.539 501.254 251.263 501.255C250.917 501.257 250.572 501.257 250.226 501.257C249.899 501.257 249.572 501.257 249.246 501.255C248.97 501.254 248.745 501.477 248.744 501.753C246.458 501.74 244.171 501.695 241.884 501.62C241.893 501.344 241.678 501.113 241.402 501.103C239.442 501.035 237.483 500.943 235.524 500.829C235.249 500.813 235.012 501.023 234.996 501.298C234.021 501.24 233.046 501.175 232.071 501.105C232.091 500.83 231.885 500.59 231.609 500.57C230.958 500.522 230.306 500.471 229.654 500.418C229.379 500.395 229.138 500.6 229.115 500.875C226.837 500.684 224.561 500.462 222.286 500.209C222.317 499.935 222.12 499.688 221.846 499.656C219.898 499.436 217.951 499.193 216.007 498.926C215.733 498.889 215.481 499.08 215.444 499.353C214.476 499.219 213.51 499.079 212.544 498.933C212.585 498.66 212.398 498.406 212.125 498.364C211.479 498.265 210.833 498.164 210.187 498.06C209.914 498.016 209.658 498.201 209.614 498.474C207.358 498.106 205.106 497.708 202.857 497.278C202.909 497.007 202.732 496.745 202.461 496.693C200.536 496.322 198.615 495.927 196.697 495.51C196.427 495.451 196.161 495.622 196.102 495.892C195.149 495.682 194.196 495.467 193.244 495.247C193.307 494.978 193.14 494.709 192.871 494.647C192.234 494.498 191.598 494.346 190.962 494.192C190.694 494.127 190.424 494.292 190.359 494.56C188.139 494.017 185.925 493.444 183.717 492.84C183.79 492.574 183.634 492.299 183.368 492.226C181.479 491.705 179.594 491.161 177.715 490.595C177.45 490.515 177.172 490.665 177.092 490.929C176.157 490.645 175.224 490.356 174.291 490.061C174.375 489.798 174.23 489.517 173.967 489.433C173.344 489.235 172.722 489.034 172.101 488.831C171.839 488.745 171.557 488.888 171.471 489.15C169.301 488.436 167.139 487.69 164.984 486.914C165.078 486.655 164.944 486.368 164.685 486.274C162.843 485.606 161.007 484.916 159.177 484.203C158.92 484.103 158.63 484.23 158.53 484.487C157.621 484.131 156.713 483.769 155.807 483.401C155.911 483.146 155.788 482.854 155.533 482.75C154.928 482.503 154.324 482.254 153.72 482.002C153.466 481.896 153.173 482.016 153.067 482.271C150.961 481.387 148.864 480.473 146.776 479.529C146.89 479.277 146.779 478.981 146.528 478.867C144.745 478.056 142.97 477.223 141.202 476.367C140.954 476.247 140.655 476.351 140.534 476.599C139.657 476.172 138.781 475.74 137.907 475.302C138.031 475.055 137.932 474.755 137.685 474.631C137.102 474.337 136.519 474.04 135.937 473.741C135.691 473.615 135.39 473.712 135.264 473.957C133.235 472.91 131.216 471.832 129.21 470.725C129.343 470.483 129.256 470.179 129.015 470.045C127.302 469.096 125.598 468.124 123.904 467.131C123.665 466.991 123.359 467.071 123.22 467.309C122.379 466.814 121.541 466.314 120.705 465.808C120.848 465.572 120.773 465.265 120.537 465.122C119.978 464.782 119.42 464.44 118.863 464.096C118.629 463.951 118.321 464.023 118.175 464.258C116.237 463.053 114.311 461.82 112.399 460.557C112.551 460.326 112.488 460.017 112.258 459.864C110.627 458.782 109.005 457.678 107.393 456.553C107.167 456.395 106.855 456.451 106.697 456.677C105.899 456.117 105.103 455.552 104.309 454.981C104.47 454.757 104.42 454.445 104.196 454.284C103.665 453.901 103.136 453.515 102.608 453.128C102.386 452.965 102.073 453.012 101.909 453.235C100.074 451.882 98.2522 450.5 96.445 449.09C96.6149 448.873 96.5767 448.559 96.3595 448.389C94.8192 447.182 93.2894 445.954 91.7706 444.705C91.5574 444.529 91.2426 444.56 91.0671 444.773C90.3148 444.152 89.5651 443.525 88.8182 442.894C88.9965 442.683 88.9706 442.368 88.7603 442.189C88.2621 441.766 87.7651 441.341 87.2693 440.913C87.0604 440.733 86.7449 440.756 86.5645 440.965C84.8415 439.473 83.1336 437.953 81.4412 436.405C81.6277 436.202 81.6141 435.886 81.4108 435.699C79.9701 434.376 78.5407 433.032 77.123 431.668C76.9241 431.477 76.6079 431.483 76.4164 431.682C75.7145 431.004 75.0155 430.321 74.3194 429.633C74.5136 429.437 74.5122 429.12 74.3163 428.926C74.0837 428.695 73.8515 428.464 73.6196 428.232C73.386 427.998 73.1531 427.764 72.9207 427.53C72.7263 427.334 72.41 427.333 72.2139 427.527C70.5905 425.885 68.9945 424.225 67.4258 422.549C67.6275 422.361 67.6384 422.045 67.4502 421.843C66.1049 420.4 64.7798 418.945 63.4749 417.478C63.2915 417.272 62.9757 417.253 62.7694 417.436C62.1152 416.698 61.4661 415.957 60.8221 415.212C61.0309 415.032 61.0542 414.717 60.874 414.507C60.4451 414.01 60.0185 413.511 59.5942 413.011C59.4156 412.8 59.1004 412.774 58.8898 412.952C57.4034 411.193 55.945 409.418 54.5148 407.627C54.7305 407.455 54.7662 407.141 54.5944 406.925C53.3649 405.379 52.1563 403.823 50.9687 402.255C50.802 402.035 50.4887 401.992 50.2686 402.158C49.6783 401.375 49.0931 400.59 48.5132 399.802C48.7355 399.639 48.7836 399.326 48.6204 399.104C48.2306 398.572 47.8432 398.039 47.4582 397.505C47.2968 397.281 46.9846 397.231 46.7606 397.392C45.4169 395.52 44.1022 393.634 42.8163 391.733C43.045 391.579 43.1054 391.269 42.9512 391.04C41.8482 389.403 40.7666 387.755 39.7065 386.098C39.5578 385.866 39.2489 385.798 39.0163 385.946C38.4877 385.116 37.9644 384.283 37.4465 383.448C37.6811 383.303 37.7538 382.995 37.6088 382.76C37.2639 382.202 36.9215 381.643 36.5815 381.082C36.4384 380.846 36.1312 380.771 35.8951 380.914C34.7045 378.942 33.5435 376.957 32.412 374.96C32.6522 374.824 32.7371 374.519 32.6015 374.279C31.6332 372.562 30.6868 370.835 29.7622 369.1C29.6324 368.857 29.3299 368.764 29.0863 368.894C28.6254 368.025 28.17 367.154 27.7201 366.28C27.9655 366.154 28.0624 365.853 27.9365 365.607C27.6365 365.022 27.3389 364.436 27.0437 363.848C26.9198 363.602 26.6196 363.502 26.3729 363.626C25.3443 361.569 24.3457 359.501 23.3772 357.422C23.6274 357.305 23.7362 357.008 23.6201 356.758C22.7899 354.966 21.9821 353.167 21.1966 351.36C21.0866 351.107 20.7923 350.991 20.5392 351.101C20.1493 350.199 19.7649 349.295 19.3861 348.39C19.6408 348.283 19.7613 347.991 19.6553 347.736C19.4034 347.13 19.1539 346.524 18.907 345.917C18.803 345.661 18.5116 345.538 18.2559 345.642C17.3926 343.507 16.5599 341.362 15.7578 339.209C16.0165 339.113 16.1485 338.826 16.0526 338.567C15.3685 336.719 14.7069 334.864 14.0679 333.003C13.9782 332.742 13.6941 332.603 13.4331 332.692C13.1153 331.761 12.8032 330.828 12.4967 329.894C12.7589 329.808 12.9022 329.526 12.8167 329.263C12.6132 328.639 12.4122 328.014 12.2138 327.388C12.1304 327.125 11.8496 326.979 11.5865 327.062C10.8957 324.868 10.2357 322.666 9.60665 320.458C9.87209 320.382 10.0264 320.106 9.95132 319.841C9.4151 317.943 8.90168 316.041 8.41107 314.134C8.34231 313.867 8.07003 313.706 7.80275 313.774C7.55992 312.822 7.32277 311.869 7.09127 310.915C7.35947 310.85 7.52454 310.581 7.46 310.312C7.30629 309.673 7.15512 309.033 7.00649 308.393C6.94407 308.125 6.67567 307.957 6.40685 308.019C5.89111 305.778 5.40649 303.531 4.95301 301.278C5.22355 301.224 5.3991 300.961 5.34517 300.69C4.95995 298.757 4.5977 296.82 4.25841 294.88C4.21088 294.608 3.95209 294.426 3.68025 294.473C3.51287 293.505 3.3512 292.535 3.19524 291.565C3.4677 291.522 3.65345 291.266 3.61018 290.993C3.50725 290.344 3.40688 289.696 3.30906 289.046C3.26793 288.774 3.0135 288.586 2.74063 288.627C2.40246 286.352 2.09558 284.073 1.81999 281.791C2.09395 281.758 2.28959 281.51 2.25704 281.236C2.02469 279.279 1.81537 277.32 1.6291 275.36C1.60299 275.085 1.35925 274.883 1.08454 274.909C0.993512 273.93 0.908211 272.951 0.828638 271.971C1.10367 271.949 1.30889 271.709 1.28709 271.434C1.23522 270.779 1.18591 270.124 1.13916 269.469C1.11952 269.193 0.880567 268.986 0.605334 269.006C0.446241 266.712 0.318505 264.417 0.222128 262.12C0.497811 262.109 0.712283 261.876 0.701258 261.601C0.622545 259.632 0.566919 257.662 0.534384 255.692C0.529826 255.416 0.302572 255.196 0.0266912 255.201C0.0124067 254.218 0.00385607 253.235 0.00103972 252.252C0.276954 252.252 0.500345 252.028 0.5001 251.752C0.499518 251.095 0.5015 250.438 0.506048 249.782C0.507959 249.506 0.285924 249.28 0.010018 249.278C0.0304827 246.98 0.0823087 244.681 0.165501 242.384C0.441224 242.394 0.67319 242.179 0.683721 241.903C0.75889 239.935 0.857128 237.967 0.978436 236C0.995426 235.725 0.786035 235.487 0.51066 235.47C0.573092 234.49 0.641248 233.509 0.715129 232.529C0.990242 232.55 1.23043 232.344 1.25172 232.069C1.30239 231.414 1.35562 230.76 1.41142 230.105C1.43486 229.83 1.23108 229.588 0.956185 229.564C1.15589 227.275 1.38688 224.988 1.64916 222.704C1.92325 222.735 2.17129 222.539 2.20331 222.265C2.43189 220.308 2.68348 218.354 2.95808 216.401C2.99653 216.128 2.80628 215.875 2.5331 215.837C2.67185 214.864 2.8163 213.892 2.96646 212.921C3.23909 212.964 3.49461 212.777 3.53732 212.505C3.63891 211.856 3.74306 211.208 3.84975 210.56C3.89459 210.288 3.71033 210.031 3.43812 209.985C3.81607 207.718 4.22519 205.455 4.66549 203.197C4.93625 203.25 5.19887 203.073 5.25222 202.803C5.63268 200.872 6.036 198.944 6.46217 197.02C6.52186 196.751 6.35196 196.484 6.08263 196.424C6.29717 195.465 6.51738 194.506 6.74328 193.549C7.01175 193.612 7.28108 193.447 7.34499 193.178C7.49717 192.539 7.65188 191.9 7.80914 191.262C7.87515 190.994 7.71158 190.723 7.44374 190.657C7.99736 188.428 8.58188 186.206 9.19729 183.99C9.46307 184.064 9.73869 183.909 9.81308 183.644C10.3439 181.747 10.8974 179.856 11.4735 177.969C11.5542 177.705 11.4057 177.426 11.1419 177.345C11.4305 176.407 11.7248 175.47 12.0246 174.535C12.2873 174.619 12.5688 174.475 12.6536 174.212C12.8553 173.587 13.0595 172.963 13.2662 172.339C13.353 172.077 13.2112 171.795 12.9493 171.708C13.6762 169.529 14.4337 167.358 15.2218 165.196C15.4809 165.291 15.7678 165.158 15.8629 164.899C16.5406 163.051 17.2409 161.209 17.9635 159.373C18.0647 159.117 17.9386 158.826 17.682 158.725C18.044 157.811 18.4115 156.899 18.7846 155.988C19.0398 156.093 19.3318 155.971 19.437 155.716C19.6867 155.11 19.9389 154.505 20.1936 153.9C20.3008 153.646 20.1816 153.353 19.9274 153.246C20.8234 151.131 21.7496 149.026 22.706 146.931C22.9569 147.046 23.2534 146.935 23.3685 146.685C24.1886 144.898 25.0308 143.118 25.8951 141.347C26.0161 141.099 25.9133 140.799 25.6654 140.678C26.0979 139.796 26.5359 138.916 26.9793 138.038C27.2255 138.163 27.5261 138.064 27.651 137.818C27.9485 137.232 28.2485 136.647 28.551 136.062C28.6778 135.817 28.5821 135.516 28.3371 135.389C29.3952 133.354 30.483 131.331 31.6003 129.319C31.8414 129.453 32.1457 129.367 32.2802 129.126C33.2403 127.405 34.2221 125.694 35.2257 123.991C35.3659 123.754 35.2869 123.447 35.0493 123.307C35.5485 122.464 36.0529 121.624 36.5627 120.785C36.7983 120.929 37.1058 120.855 37.2496 120.619C37.5914 120.06 37.9357 119.501 38.2822 118.944C38.428 118.709 38.3562 118.401 38.1221 118.255C39.3387 116.307 40.5845 114.372 41.8595 112.45C42.0893 112.602 42.3994 112.54 42.5524 112.31C43.641 110.676 44.7508 109.052 45.8817 107.438C46.04 107.212 45.9853 106.9 45.7595 106.742C46.3257 105.937 46.8971 105.135 47.4739 104.336C47.6975 104.497 48.0098 104.447 48.1717 104.224C48.5579 103.69 48.9466 103.158 49.3375 102.627C49.5011 102.405 49.4538 102.092 49.2317 101.928C50.5925 100.088 51.9816 98.2616 53.3989 96.4499C53.616 96.6202 53.9301 96.5823 54.1005 96.3653C55.3167 94.817 56.5536 93.2796 57.8112 91.7533C57.9867 91.5404 57.9564 91.2255 57.7436 91.0498C58.3672 90.2961 58.9958 89.5451 59.6295 88.7969C59.8398 88.9754 60.1551 88.9498 60.3339 88.7395C60.7589 88.2397 61.1861 87.7412 61.6156 87.2439C61.796 87.035 61.7731 86.7195 61.5644 86.539C63.0676 84.8054 64.5984 83.0872 66.1568 81.385C66.3601 81.5715 66.6762 81.5581 66.8629 81.3549C68.1911 79.9097 69.5394 78.4761 70.9075 77.0545C71.0989 76.8557 71.093 76.5394 70.8943 76.3479C71.5792 75.639 72.269 74.9332 72.9637 74.2304C73.1598 74.4245 73.4761 74.4232 73.6705 74.2273C73.903 73.993 74.136 73.7591 74.3696 73.5256C74.6012 73.2939 74.8332 73.0629 75.0656 72.8323C75.2615 72.638 75.2629 72.3217 75.0687 72.1256C76.6994 70.5144 78.3483 68.9298 80.0148 67.3721C80.203 67.5738 80.5191 67.585 80.7211 67.3969C82.159 66.0583 83.6098 64.7396 85.0733 63.4407C85.2797 63.2575 85.2986 62.9418 85.1157 62.7353C85.8475 62.0883 86.5825 61.4464 87.3206 60.8094C87.5007 61.0184 87.8161 61.0422 88.0254 60.8623C88.5216 60.4357 89.0193 60.0114 89.5183 59.5893C89.729 59.411 89.7555 59.0958 89.5775 58.885C91.3299 57.4088 93.0991 55.9601 94.8842 54.5389C95.0559 54.7549 95.3701 54.7911 95.5863 54.6197C97.1254 53.3995 98.6762 52.1998 100.239 51.0206C100.459 50.8543 100.503 50.5411 100.337 50.3207C101.117 49.734 101.901 49.1523 102.687 48.5758C102.85 48.7984 103.162 48.8471 103.385 48.6843C103.914 48.2982 104.444 47.9145 104.975 47.533C105.199 47.3721 105.25 47.0599 105.09 46.8357C106.953 45.5034 108.831 44.1993 110.723 42.9234C110.877 43.1523 111.187 43.2132 111.416 43.0594C113.047 41.965 114.688 40.8915 116.339 39.839C116.571 39.6906 116.64 39.3818 116.492 39.149C117.316 38.6255 118.144 38.1073 118.973 37.5943C119.118 37.8291 119.426 37.9022 119.661 37.7575C120.218 37.4146 120.776 37.074 121.336 36.7358C121.572 36.593 121.647 36.2859 121.505 36.0496C123.466 34.8688 125.441 33.7167 127.428 32.5935C127.564 32.8338 127.868 32.9189 128.109 32.7836C129.82 31.821 131.54 30.8797 133.269 29.9599C133.513 29.8302 133.605 29.5277 133.476 29.284C134.339 28.8268 135.205 28.375 136.073 27.9284C136.199 28.1739 136.5 28.2709 136.746 28.1451C137.328 27.8471 137.911 27.5514 138.494 27.2582C138.741 27.1344 138.841 26.8341 138.717 26.5874C140.764 25.5642 142.823 24.5704 144.892 23.6059C145.009 23.8561 145.306 23.9648 145.556 23.8487C147.337 23.023 149.125 22.219 150.921 21.4368C151.174 21.3266 151.29 21.0323 151.18 20.7792C152.077 20.3907 152.976 20.0076 153.876 19.63C153.982 19.8845 154.275 20.0047 154.53 19.8985C155.133 19.6469 155.737 19.3977 156.341 19.151C156.597 19.0467 156.72 18.7552 156.616 18.4996C158.737 17.6391 160.867 16.8085 163.006 16.0077C163.102 16.2662 163.39 16.3977 163.648 16.3014C165.488 15.6169 167.333 14.9545 169.185 14.3142C169.446 14.224 169.584 13.9396 169.494 13.6788C170.418 13.3612 171.344 13.0492 172.27 12.7427C172.357 13.0048 172.639 13.1474 172.901 13.0612C173.522 12.8572 174.144 12.6557 174.766 12.4566C175.029 12.3725 175.174 12.0914 175.09 11.8285C177.271 11.1353 179.46 10.4725 181.655 9.83999C181.731 10.1052 182.008 10.2586 182.273 10.1827C184.16 9.64306 186.051 9.12585 187.947 8.63114C188.214 8.56145 188.374 8.2886 188.305 8.02156C189.25 7.77685 190.196 7.53771 191.143 7.30416C191.209 7.57212 191.48 7.73618 191.748 7.67065C192.383 7.51531 193.019 7.36249 193.655 7.21219C193.924 7.14874 194.09 6.8797 194.027 6.61111C196.255 6.0894 198.489 5.59847 200.726 5.13835C200.781 5.40867 201.045 5.58312 201.315 5.52806C203.238 5.13655 205.164 4.76784 207.093 4.42196C207.364 4.37323 207.545 4.11365 207.497 3.84203C208.459 3.67149 209.421 3.50661 210.384 3.34741C210.429 3.61967 210.685 3.80428 210.958 3.7598C211.603 3.65443 212.249 3.5516 212.894 3.45132C213.167 3.40898 213.354 3.1537 213.312 2.88102C215.574 2.53441 217.838 2.21902 220.104 1.93487C220.138 2.20867 220.388 2.40318 220.662 2.36939C222.609 2.12914 224.558 1.912 226.508 1.71801C226.782 1.69069 226.983 1.44604 226.956 1.17146C227.928 1.07666 228.901 0.987615 229.874 0.904313C229.897 1.17924 230.138 1.38341 230.413 1.36041C231.065 1.30596 231.716 1.25409 232.367 1.2048C232.643 1.18397 232.849 0.944139 232.828 0.668994C235.11 0.500904 237.393 0.36446 239.675 0.259694C239.687 0.535327 239.92 0.748886 240.196 0.736786C242.156 0.650755 244.116 0.588153 246.075 0.549004C246.351 0.543489 246.57 0.315479 246.565 0.0396199C247.542 0.0220844 248.518 0.0103684 249.494 0.00447456C249.496 0.28038 249.72 0.503065 249.996 0.501961C250.323 0.500654 250.649 0.5 250.976 0.5C251.303 0.5 251.63 0.500635 251.956 0.501904C252.232 0.502976 252.457 0.280257 252.458 0.00434453C254.744 0.0177438 257.031 0.0621428 259.318 0.137612C259.309 0.413368 259.524 0.644644 259.8 0.654291C261.76 0.722832 263.719 0.814231 265.678 0.928533C265.954 0.944608 266.19 0.734431 266.206 0.459C267.181 0.517824 268.156 0.582311 269.131 0.652468C269.111 0.927651 269.317 1.16714 269.593 1.18749C270.244 1.23571 270.896 1.28646 271.548 1.33975C271.823 1.36225 272.064 1.15764 272.087 0.882664C274.365 1.0735 276.641 1.29535 278.916 1.54829C278.885 1.82248 279.082 2.06982 279.357 2.10087C281.304 2.32139 283.251 2.56475 285.195 2.83102C285.469 2.86846 285.721 2.67729 285.758 2.40397C286.726 2.53837 287.692 2.67843 288.658 2.82415C288.617 3.09694 288.804 3.35177 289.077 3.39347C289.723 3.49225 290.369 3.59357 291.015 3.69743C291.288 3.74126 291.544 3.55604 291.588 3.28367C293.844 3.65111 296.096 4.04951 298.345 4.47896C298.293 4.74993 298.47 5.01187 298.741 5.06419C300.666 5.43574 302.587 5.83009 304.505 6.24728C304.775 6.30594 305.041 6.13502 305.1 5.86547C306.054 6.07486 307.006 6.28989 307.958 6.51057C307.895 6.77929 308.062 7.04797 308.331 7.11084C308.968 7.25982 309.604 7.41132 310.24 7.56537C310.508 7.63034 310.778 7.46572 310.844 7.19763C313.063 7.73993 315.277 8.31307 317.485 8.91713C317.412 9.18319 317.568 9.45821 317.834 9.53157C319.723 10.0525 321.608 10.5961 323.487 11.1624C323.752 11.242 324.03 11.0925 324.11 10.8284C325.045 11.112 325.978 11.4013 326.911 11.6962C326.827 11.9592 326.972 12.2401 327.235 12.3239C327.858 12.5221 328.48 12.7229 329.101 12.9262C329.363 13.0121 329.645 12.8691 329.731 12.607C331.901 13.3218 334.063 14.0672 336.218 14.8433C336.124 15.1028 336.258 15.3893 336.517 15.4833C338.359 16.1511 340.195 16.8413 342.025 17.5542C342.282 17.6543 342.572 17.5272 342.672 17.2702C343.581 17.6266 344.489 17.9885 345.395 18.3559C345.291 18.6115 345.414 18.9031 345.669 19.0073C346.274 19.2541 346.878 19.5033 347.482 19.755C347.736 19.8613 348.029 19.7411 348.135 19.4866C350.241 20.3702 352.338 21.2842 354.426 22.2286C354.312 22.4798 354.423 22.776 354.674 22.8903C356.457 23.7013 358.232 24.5346 360 25.3902C360.248 25.5104 360.547 25.4066 360.668 25.1584C361.545 25.5853 362.421 26.0177 363.295 26.4556C363.171 26.7022 363.27 27.0025 363.517 27.1266C364.1 27.4207 364.683 27.7171 365.265 28.0161C365.511 28.1422 365.812 28.0455 365.938 27.8002C367.967 28.8478 369.986 29.9252 371.992 31.0328C371.859 31.2742 371.946 31.5782 372.188 31.7121C373.9 32.6615 375.604 33.633 377.299 34.6264C377.537 34.7659 377.843 34.6861 377.982 34.4482C378.823 34.9431 379.661 35.4433 380.497 35.9489C380.354 36.1849 380.429 36.4921 380.665 36.6354C381.224 36.975 381.782 37.3171 382.339 37.6615C382.573 37.8067 382.881 37.7342 383.027 37.4997C384.965 38.704 386.891 39.9376 388.803 41.2008C388.651 41.4308 388.714 41.7408 388.944 41.8934C390.575 42.9754 392.197 44.079 393.809 45.2041C394.035 45.3621 394.347 45.3068 394.505 45.0807C395.303 45.6406 396.099 46.2057 396.893 46.7761C396.732 47 396.782 47.3123 397.006 47.4738C397.537 47.8566 398.066 48.2419 398.594 48.6295C398.817 48.7928 399.129 48.7449 399.293 48.5227C401.128 49.8754 402.95 51.2569 404.757 52.6673C404.587 52.8846 404.625 53.1986 404.843 53.3688C406.383 54.5758 407.913 55.8037 409.431 57.0527C409.645 57.228 409.959 57.1974 410.135 56.9845C410.887 57.6057 411.637 58.2321 412.384 58.8637C412.206 59.0742 412.231 59.3894 412.442 59.568C412.94 59.991 413.437 60.4163 413.933 60.8438C414.142 61.0241 414.457 61.0009 414.638 60.7922C416.361 62.2842 418.068 63.8042 419.761 65.3522C419.574 65.5556 419.588 65.8717 419.791 66.0583C421.232 67.3815 422.661 68.725 424.079 70.089C424.278 70.2803 424.594 70.2743 424.786 70.0757C425.488 70.7537 426.187 71.4367 426.883 72.1247C426.688 72.3208 426.69 72.6371 426.886 72.8315C427.118 73.0618 427.35 73.2927 427.581 73.5242C427.82 73.7645 428.057 74.0052 428.295 74.2462C428.488 74.4429 428.805 74.4454 429.001 74.2521C430.664 75.9477 432.299 77.6607 433.904 79.3904C433.702 79.5779 433.69 79.894 433.877 80.0966C435.251 81.5823 436.603 83.0802 437.935 84.59C438.117 84.797 438.433 84.8169 438.64 84.6346C439.313 85.3999 439.979 86.1683 440.641 86.9397C440.431 87.1191 440.407 87.4344 440.586 87.6443C441.023 88.156 441.458 88.669 441.89 89.1833C442.067 89.3945 442.383 89.422 442.594 89.2446C444.116 91.0624 445.608 92.8962 447.071 94.7455C446.854 94.9165 446.817 95.2306 446.988 95.4474C448.24 97.036 449.469 98.636 450.677 100.247C450.843 100.468 451.156 100.513 451.377 100.347C451.985 101.162 452.587 101.979 453.184 102.798C452.961 102.961 452.911 103.273 453.073 103.496C453.469 104.043 453.863 104.591 454.255 105.139C454.415 105.364 454.727 105.416 454.952 105.257C456.322 107.186 457.661 109.131 458.971 111.089C458.741 111.242 458.679 111.553 458.832 111.782C459.955 113.469 461.056 115.166 462.134 116.873C462.281 117.107 462.59 117.177 462.823 117.029C463.363 117.889 463.898 118.751 464.427 119.615C464.191 119.759 464.117 120.066 464.26 120.302C464.61 120.875 464.957 121.45 465.301 122.026C465.443 122.263 465.749 122.34 465.986 122.198C467.2 124.236 468.382 126.287 469.533 128.35C469.292 128.484 469.205 128.789 469.339 129.03C470.32 130.797 471.278 132.573 472.213 134.357C472.342 134.602 472.643 134.696 472.888 134.568C473.359 135.471 473.823 136.375 474.282 137.282C474.036 137.406 473.937 137.707 474.061 137.953C474.364 138.554 474.664 139.157 474.962 139.76C475.084 140.007 475.383 140.109 475.631 139.987C476.674 142.112 477.686 144.249 478.666 146.397C478.415 146.511 478.304 146.807 478.418 147.058C479.254 148.899 480.066 150.747 480.855 152.602C480.963 152.856 481.256 152.975 481.51 152.867C481.905 153.803 482.295 154.741 482.679 155.68C482.423 155.784 482.3 156.076 482.404 156.331C482.658 156.956 482.909 157.581 483.157 158.207C483.259 158.464 483.549 158.589 483.806 158.488C484.674 160.688 485.51 162.898 486.313 165.117C486.054 165.211 485.919 165.497 486.013 165.757C486.698 167.66 487.359 169.57 487.997 171.486C488.084 171.748 488.366 171.89 488.628 171.803C488.947 172.767 489.259 173.732 489.566 174.699C489.303 174.782 489.157 175.062 489.24 175.326C489.442 175.967 489.641 176.609 489.838 177.252C489.919 177.516 490.198 177.665 490.462 177.584C491.151 179.85 491.807 182.122 492.43 184.402C492.163 184.475 492.006 184.749 492.078 185.016C492.607 186.966 493.112 188.921 493.593 190.88C493.659 191.148 493.929 191.312 494.197 191.247C494.438 192.234 494.672 193.223 494.9 194.212C494.631 194.274 494.463 194.542 494.524 194.811C494.674 195.467 494.821 196.123 494.966 196.78C495.025 197.05 495.292 197.22 495.561 197.161C496.065 199.473 496.536 201.791 496.973 204.113C496.702 204.164 496.523 204.425 496.574 204.696C496.944 206.681 497.29 208.67 497.612 210.662C497.656 210.934 497.913 211.12 498.185 211.076C498.345 212.079 498.499 213.084 498.647 214.089C498.374 214.129 498.185 214.382 498.225 214.655C498.322 215.321 498.416 215.988 498.507 216.655C498.545 216.928 498.796 217.12 499.07 217.083C499.386 219.426 499.669 221.774 499.92 224.123C499.645 224.152 499.446 224.398 499.475 224.673C499.685 226.682 499.87 228.693 500.031 230.705C500.053 230.981 500.294 231.186 500.569 231.164C500.648 232.176 500.721 233.189 500.788 234.202C500.513 234.22 500.304 234.457 500.322 234.733C500.365 235.404 500.405 236.077 500.443 236.749C500.458 237.024 500.694 237.235 500.969 237.22C501.097 239.581 501.191 241.944 501.252 244.307C500.976 244.314 500.758 244.543 500.764 244.819C500.812 246.838 500.836 248.857 500.836 250.877C500.836 251.153 501.059 251.376 501.335 251.377C501.333 252.392 501.324 253.408 501.31 254.423C501.034 254.419 500.807 254.639 500.802 254.915C500.799 255.14 500.795 255.365 500.79 255.591C500.782 256.038 500.772 256.486 500.761 256.934C500.755 257.21 500.973 257.439 501.249 257.446C501.186 259.809 501.091 262.172 500.962 264.533C500.687 264.518 500.451 264.728 500.435 265.004C500.321 267.02 500.183 269.035 500.021 271.048C499.999 271.323 500.203 271.564 500.478 271.586C500.395 272.598 500.305 273.609 500.209 274.62C499.934 274.594 499.69 274.795 499.664 275.07C499.599 275.74 499.531 276.41 499.461 277.079C499.432 277.353 499.631 277.599 499.905 277.628C499.654 279.979 499.369 282.326 499.051 284.67C498.778 284.632 498.526 284.823 498.488 285.097C498.213 287.097 497.913 289.094 497.59 291.088C497.545 291.361 497.73 291.617 498.003 291.662C497.838 292.664 497.667 293.665 497.49 294.665C497.219 294.617 496.959 294.797 496.91 295.069C496.792 295.731 496.671 296.393 496.547 297.055C496.496 297.326 496.675 297.587 496.946 297.638C496.506 299.961 496.033 302.278 495.528 304.59C495.258 304.531 494.992 304.701 494.932 304.97C494.497 306.94 494.038 308.906 493.555 310.867C493.489 311.135 493.652 311.405 493.92 311.472C493.675 312.458 493.424 313.442 493.167 314.426C492.9 314.356 492.627 314.515 492.557 314.782C492.487 315.046 492.417 315.31 492.346 315.574C492.243 315.961 492.139 316.347 492.034 316.733C491.961 316.999 492.118 317.274 492.385 317.347C491.76 319.624 491.102 321.895 490.411 324.158C490.148 324.077 489.868 324.225 489.787 324.489C489.194 326.417 488.578 328.34 487.938 330.257C487.85 330.519 487.991 330.802 488.253 330.889C487.929 331.851 487.6 332.811 487.264 333.77C487.004 333.679 486.719 333.816 486.627 334.076C486.404 334.711 486.177 335.345 485.948 335.979C485.855 336.238 485.989 336.525 486.248 336.619C485.441 338.838 484.602 341.048 483.731 343.248C483.474 343.146 483.184 343.271 483.082 343.527C482.334 345.403 481.563 347.271 480.769 349.132C480.661 349.386 480.778 349.679 481.032 349.788C480.632 350.719 480.227 351.648 479.815 352.576C479.563 352.464 479.268 352.577 479.155 352.829C478.881 353.443 478.604 354.056 478.325 354.668C478.211 354.919 478.321 355.216 478.572 355.331C477.588 357.478 476.572 359.614 475.523 361.739C475.276 361.616 474.976 361.717 474.854 361.965C473.958 363.77 473.04 365.567 472.098 367.356C471.97 367.6 472.063 367.902 472.307 368.031C471.832 368.93 471.35 369.827 470.863 370.721C470.621 370.589 470.317 370.678 470.185 370.92C469.862 371.509 469.537 372.097 469.21 372.684C469.075 372.924 469.161 373.229 469.402 373.364C468.248 375.422 467.063 377.468 465.846 379.5C465.609 379.358 465.303 379.434 465.16 379.671C464.122 381.398 463.061 383.114 461.978 384.821C461.83 385.054 461.898 385.363 462.131 385.511C461.586 386.366 461.035 387.219 460.478 388.069C460.247 387.918 459.937 387.982 459.786 388.212C459.415 388.775 459.042 389.337 458.667 389.898C458.514 390.127 458.575 390.437 458.804 390.591C457.489 392.547 456.143 394.489 454.767 396.416C454.542 396.256 454.23 396.307 454.069 396.531C452.893 398.172 451.694 399.802 450.473 401.42C450.307 401.64 450.35 401.954 450.57 402.12C449.96 402.926 449.344 403.729 448.722 404.529C448.504 404.36 448.191 404.399 448.021 404.616C447.608 405.146 447.192 405.675 446.774 406.202C446.603 406.418 446.639 406.732 446.855 406.904C445.384 408.751 443.884 410.582 442.354 412.397C442.144 412.219 441.828 412.245 441.65 412.456C440.351 413.991 439.03 415.515 437.688 417.026C437.504 417.233 437.523 417.548 437.729 417.732C437.052 418.492 436.369 419.248 435.681 420.002C435.477 419.816 435.161 419.829 434.975 420.033C434.746 420.282 434.517 420.531 434.288 420.779ZM85.6407 413.323C84.9258 412.599 84.2166 411.871 83.5132 411.14C83.5131 411.14 83.5129 411.14 83.5128 411.14C83.3134 411.331 82.9969 411.324 82.8059 411.125C81.4054 409.663 80.0278 408.187 78.673 406.697C78.4873 406.493 78.5023 406.176 78.7065 405.991C78.7067 405.991 78.7068 405.99 78.7069 405.99C77.117 404.234 75.5587 402.46 74.0322 400.667C74.032 400.668 74.0319 400.668 74.0318 400.668C73.8211 400.846 73.5056 400.82 73.327 400.61C72.8914 400.096 72.4584 399.581 72.028 399.064C71.8512 398.852 71.8799 398.537 72.0921 398.36C72.0922 398.36 72.0924 398.36 72.0925 398.36C71.4461 397.58 70.8056 396.798 70.171 396.012C70.1709 396.012 70.1707 396.012 70.1706 396.012C69.9554 396.185 69.6407 396.151 69.4676 395.936C68.1958 394.354 66.9477 392.759 65.7235 391.152C65.5561 390.933 65.5986 390.619 65.8182 390.451C65.8184 390.451 65.8185 390.451 65.8187 390.451C64.3903 388.568 62.9946 386.667 61.6316 384.75C61.6315 384.75 61.6313 384.751 61.6312 384.751C61.4058 384.91 61.0937 384.857 60.9342 384.631C60.5441 384.08 60.1567 383.528 59.772 382.974C59.6144 382.747 59.6706 382.436 59.8973 382.278C59.8975 382.278 59.8976 382.278 59.8978 382.278C59.3225 381.446 58.7532 380.611 58.1901 379.773C58.1899 379.774 58.1897 379.774 58.1896 379.774C57.9601 379.927 57.6496 379.866 57.496 379.636C56.368 377.95 55.2644 376.253 54.1853 374.544C54.0379 374.311 54.1076 374.002 54.3411 373.855C54.3412 373.855 54.3414 373.854 54.3415 373.854C53.0851 371.855 51.8621 369.841 50.6725 367.813C50.6724 367.813 50.6722 367.813 50.6721 367.813C50.4336 367.952 50.1274 367.872 49.9882 367.633C49.6475 367.05 49.3096 366.464 48.9744 365.878C48.8373 365.639 48.9205 365.333 49.1602 365.196C49.1604 365.196 49.1606 365.196 49.1607 365.196C48.6595 364.315 48.1645 363.431 47.6757 362.545C47.6756 362.545 47.6754 362.545 47.6753 362.545C47.4332 362.678 47.1292 362.589 46.9964 362.347C46.0224 360.572 45.0733 358.787 44.1491 356.992C44.0227 356.746 44.1193 356.445 44.3648 356.318C44.3649 356.318 44.3651 356.318 44.3653 356.318C43.2886 354.216 42.2462 352.101 41.2379 349.973C41.2378 349.973 41.2376 349.973 41.2374 349.973C40.9876 350.091 40.6897 349.984 40.572 349.734C40.2847 349.124 40.0003 348.514 39.7186 347.902C39.6031 347.651 39.7127 347.354 39.9636 347.239C39.9637 347.239 39.9639 347.239 39.9641 347.239C39.5416 346.316 39.1255 345.391 38.7157 344.464C38.7156 344.464 38.7154 344.464 38.7152 344.465C38.4624 344.576 38.1674 344.461 38.0563 344.208C37.2421 342.355 36.4532 340.494 35.6897 338.624C35.5853 338.369 35.7079 338.077 35.9635 337.972C35.9637 337.972 35.9639 337.972 35.964 337.972C35.0756 335.783 34.2219 333.584 33.403 331.374C33.4028 331.374 33.4027 331.374 33.4025 331.374C33.1434 331.469 32.856 331.337 32.7606 331.077C32.5277 330.445 32.2978 329.812 32.0706 329.178C31.9775 328.918 32.1127 328.631 32.3727 328.538C32.3729 328.538 32.373 328.538 32.3732 328.538C32.0337 327.584 31.7006 326.628 31.3739 325.67C31.3738 325.67 31.3736 325.67 31.3734 325.67C31.1119 325.759 30.828 325.618 30.7395 325.357C30.09 323.439 29.4662 321.514 28.8682 319.583C28.7865 319.319 28.9341 319.039 29.1979 318.957C29.1981 318.957 29.1983 318.957 29.1984 318.957C28.505 316.701 27.8468 314.436 27.2238 312.164C27.2236 312.164 27.2234 312.164 27.2232 312.164C26.9568 312.236 26.682 312.079 26.6096 311.812C26.4327 311.162 26.2586 310.51 26.0874 309.858C26.0173 309.591 26.177 309.318 26.4441 309.248C26.4443 309.247 26.4444 309.247 26.4446 309.247C26.1898 308.268 25.9415 307.288 25.6997 306.306C25.6995 306.306 25.6994 306.306 25.6992 306.306C25.4309 306.372 25.1604 306.207 25.0949 305.939C24.6148 303.971 24.1607 301.999 23.7326 300.022C23.6742 299.752 23.8456 299.486 24.1155 299.428C24.1156 299.428 24.1158 299.427 24.116 299.427C23.6216 297.12 23.1627 294.807 22.7393 292.489C22.7391 292.489 22.7389 292.489 22.7387 292.489C22.467 292.538 22.2069 292.358 22.1579 292.086C22.0381 291.422 21.9212 290.758 21.8072 290.093C21.7605 289.821 21.9433 289.562 22.2155 289.516C22.2157 289.516 22.2158 289.516 22.216 289.516C22.047 288.518 21.8846 287.518 21.7287 286.519C21.7285 286.519 21.7283 286.519 21.7282 286.519C21.4552 286.561 21.2 286.373 21.158 286.1C20.8506 284.1 20.5692 282.096 20.3141 280.09C20.2792 279.816 20.473 279.566 20.747 279.531C20.7472 279.531 20.7473 279.531 20.7475 279.531C20.4549 277.191 20.198 274.847 19.9766 272.5C19.9765 272.5 19.9763 272.5 19.9761 272.5C19.7011 272.525 19.4577 272.323 19.4323 272.048C19.3705 271.376 19.3115 270.704 19.2554 270.032C19.2324 269.757 19.4369 269.515 19.7121 269.492C19.7123 269.492 19.7125 269.492 19.7126 269.492C19.6306 268.483 19.5552 267.473 19.4863 266.463C19.4862 266.463 19.486 266.463 19.4858 266.463C19.2103 266.481 18.9721 266.273 18.9539 265.997C18.8207 263.978 18.7136 261.958 18.6328 259.937C18.6218 259.661 18.8365 259.429 19.1125 259.418C19.1126 259.418 19.1128 259.418 19.113 259.418C19.0238 257.061 18.9704 254.703 18.9527 252.345C18.9525 252.345 18.9523 252.345 18.9522 252.345C18.676 252.347 18.451 252.124 18.4495 251.848C18.4459 251.174 18.4452 250.499 18.4474 249.825C18.4483 249.549 18.6729 249.326 18.9491 249.327C18.9492 249.327 18.9494 249.327 18.9496 249.327C18.9551 248.314 18.9672 247.302 18.9859 246.29C18.9857 246.29 18.9856 246.29 18.9854 246.29C18.7093 246.284 18.4901 246.055 18.4958 245.779C18.5375 243.757 18.6054 241.735 18.6997 239.714C18.7125 239.438 18.9466 239.225 19.2224 239.238C19.2226 239.238 19.2228 239.238 19.2229 239.238C19.3378 236.883 19.4884 234.529 19.6748 232.178C19.6746 232.178 19.6744 232.178 19.6743 232.178C19.399 232.156 19.1941 231.914 19.2165 231.639C19.2712 230.967 19.3289 230.295 19.3895 229.623C19.4143 229.348 19.6573 229.145 19.9323 229.17C19.9325 229.17 19.9327 229.17 19.9329 229.17C20.026 228.162 20.1256 227.155 20.2318 226.148C20.2317 226.148 20.2315 226.148 20.2313 226.148C19.9568 226.118 19.7582 225.872 19.7877 225.597C20.0043 223.586 20.2471 221.578 20.5161 219.572C20.5528 219.298 20.8045 219.106 21.0782 219.143C21.0783 219.143 21.0785 219.143 21.0787 219.143C21.3971 216.808 21.7512 214.476 22.1409 212.15C22.1407 212.15 22.1406 212.15 22.1404 212.15C21.8681 212.103 21.6849 211.845 21.7311 211.573C21.844 210.908 21.9597 210.244 22.0784 209.58C22.127 209.308 22.3867 209.127 22.6585 209.176C22.6587 209.176 22.6589 209.176 22.6591 209.176C22.8394 208.179 23.0262 207.184 23.2197 206.189C23.2195 206.189 23.2193 206.189 23.2191 206.189C22.9482 206.136 22.7718 205.873 22.8251 205.602C23.2154 203.619 23.6318 201.639 24.0743 199.665C24.1347 199.395 24.4021 199.226 24.6716 199.286C24.6717 199.286 24.6719 199.286 24.6721 199.286C25.1925 196.988 25.7483 194.696 26.3396 192.412C26.3394 192.412 26.3393 192.412 26.3391 192.411C26.0719 192.342 25.9119 192.069 25.9817 191.801C26.152 191.149 26.3252 190.498 26.5013 189.847C26.5735 189.58 26.848 189.422 27.1146 189.494C27.1147 189.495 27.1149 189.495 27.1151 189.495C27.3817 188.518 27.6548 187.542 27.9345 186.568C27.9343 186.568 27.9341 186.568 27.9339 186.568C27.6687 186.491 27.5159 186.214 27.5927 185.949C28.1546 184.007 28.7424 182.072 29.3562 180.144C29.4399 179.881 29.7211 179.735 29.9842 179.819C29.9844 179.819 29.9846 179.819 29.9848 179.819C30.7043 177.575 31.4591 175.34 32.249 173.115C32.2488 173.115 32.2486 173.115 32.2485 173.115C31.9884 173.022 31.853 172.736 31.9459 172.476C32.1727 171.841 32.4023 171.208 32.6347 170.575C32.7299 170.316 33.0173 170.183 33.2765 170.279C33.2766 170.279 33.2768 170.279 33.277 170.279C33.6281 169.33 33.9856 168.382 34.3496 167.437C34.3494 167.437 34.3493 167.437 34.3491 167.437C34.0916 167.337 33.9638 167.048 34.0636 166.79C34.7941 164.905 35.5502 163.029 36.332 161.16C36.4386 160.905 36.7315 160.785 36.9862 160.892C36.9864 160.892 36.9865 160.892 36.9867 160.892C37.9009 158.721 38.8497 156.561 39.8334 154.413C39.8332 154.413 39.833 154.413 39.8329 154.413C39.5821 154.297 39.4724 154 39.5879 153.75C39.8699 153.138 40.1546 152.527 40.4421 151.917C40.5599 151.667 40.8578 151.56 41.1076 151.678C41.1078 151.678 41.108 151.678 41.1081 151.678C41.541 150.765 41.9802 149.854 42.4258 148.946C42.4256 148.946 42.4255 148.946 42.4253 148.946C42.1776 148.823 42.0759 148.524 42.1981 148.276C43.0929 146.462 44.013 144.658 44.9584 142.863C45.0871 142.619 45.3895 142.525 45.6338 142.654C45.634 142.654 45.6341 142.654 45.6343 142.654C46.7352 140.576 47.8702 138.511 49.0392 136.46C49.039 136.46 49.0389 136.46 49.0387 136.46C48.7991 136.323 48.7162 136.017 48.8535 135.778C49.1892 135.192 49.5277 134.607 49.869 134.024C50.0084 133.786 50.3147 133.705 50.553 133.845C50.5532 133.845 50.5534 133.845 50.5535 133.845C51.0657 132.974 51.5841 132.105 52.1087 131.24C52.1085 131.24 52.1084 131.24 52.1082 131.24C51.8724 131.096 51.7976 130.788 51.9412 130.552C52.9918 128.828 54.067 127.114 55.167 125.411C55.3169 125.18 55.6264 125.113 55.8583 125.263C55.8585 125.263 55.8586 125.263 55.8588 125.263C57.1395 123.291 58.4536 121.334 59.8011 119.394C59.8009 119.393 59.8008 119.393 59.8006 119.393C59.5741 119.235 59.5186 118.924 59.6766 118.697C60.0624 118.144 60.4509 117.593 60.8421 117.042C61.0021 116.817 61.3142 116.765 61.5393 116.925C61.5394 116.925 61.5396 116.925 61.5397 116.925C62.1295 116.099 62.7254 115.277 63.3274 114.457C63.3273 114.457 63.3272 114.457 63.327 114.457C63.1048 114.293 63.0577 113.98 63.2216 113.758C64.418 112.137 65.6384 110.528 66.8828 108.932C67.0526 108.715 67.3668 108.676 67.5845 108.846C67.5847 108.846 67.5848 108.846 67.585 108.846C69.036 106.993 70.5195 105.159 72.0355 103.342C72.0354 103.342 72.0352 103.342 72.0351 103.342C71.8234 103.164 71.7957 102.849 71.9731 102.637C72.4051 102.122 72.8397 101.608 73.2769 101.096C73.4561 100.886 73.7717 100.861 73.9818 101.04C73.9819 101.04 73.982 101.04 73.9822 101.04C74.6406 100.272 75.305 99.5074 75.9753 98.746C75.9751 98.7459 75.975 98.7457 75.9748 98.7456C75.768 98.5627 75.7486 98.2467 75.9315 98.0398C77.2681 96.5282 78.628 95.0302 80.0112 93.5463C80.1995 93.3443 80.5159 93.3332 80.7178 93.5215C80.718 93.5216 80.7181 93.5217 80.7182 93.5218C82.3262 91.8043 83.9655 90.1059 85.6363 88.4273C85.6361 88.4271 85.636 88.427 85.6359 88.4269C85.4406 88.2317 85.4405 87.9151 85.6358 87.7198C85.8749 87.4805 86.1147 87.2417 86.3551 87.0032C86.5941 86.7643 86.8334 86.526 87.0731 86.2882C87.2692 86.0938 87.5858 86.0951 87.7802 86.2912C87.7803 86.2913 87.7804 86.2914 87.7806 86.2915C88.5023 85.5786 89.2276 84.8711 89.9564 84.169C89.9563 84.1689 89.9562 84.1687 89.9561 84.1686C89.7649 83.9694 89.7714 83.6528 89.9707 83.4617C91.4346 82.0572 92.9126 80.6742 94.4044 79.313C94.6083 79.1269 94.9246 79.1414 95.1107 79.3454C95.1108 79.3455 95.111 79.3456 95.1111 79.3458C96.8625 77.7543 98.6328 76.1928 100.422 74.6615C100.421 74.6614 100.421 74.6612 100.421 74.6611C100.242 74.4509 100.267 74.1354 100.477 73.9562C100.991 73.5182 101.507 73.0826 102.024 72.6495C102.235 72.4722 102.551 72.5 102.728 72.7116C102.728 72.7118 102.728 72.7119 102.728 72.712C103.507 72.0622 104.289 71.4181 105.075 70.7795C105.075 70.7794 105.075 70.7793 105.075 70.7791C104.901 70.5645 104.934 70.2496 105.149 70.0759C106.725 68.8001 108.315 67.547 109.918 66.3167C110.137 66.1485 110.451 66.1898 110.619 66.4088C110.619 66.409 110.619 66.4091 110.619 66.4093C112.498 64.9737 114.394 63.5695 116.308 62.1968C116.308 62.1967 116.308 62.1965 116.308 62.1964C116.147 61.9717 116.2 61.6594 116.424 61.4989C116.974 61.1066 117.525 60.7169 118.077 60.3297C118.303 60.1712 118.615 60.226 118.773 60.4522C118.774 60.4523 118.774 60.4525 118.774 60.4526C119.605 59.8725 120.44 59.2982 121.278 58.7298C121.278 58.7296 121.278 58.7295 121.277 58.7293C121.123 58.5005 121.183 58.1897 121.412 58.0351C123.092 56.9009 124.784 55.7902 126.489 54.7032C126.722 54.5547 127.031 54.6231 127.179 54.856C127.179 54.8561 127.18 54.8563 127.18 54.8564C129.175 53.59 131.188 52.3562 133.216 51.1551C133.216 51.1549 133.216 51.1548 133.216 51.1546C133.076 50.9167 133.155 50.6102 133.393 50.47C133.974 50.1274 134.557 49.7875 135.141 49.4503C135.381 49.3122 135.686 49.3942 135.824 49.6333C135.824 49.6335 135.825 49.6336 135.825 49.6338C136.704 49.1288 137.586 48.6299 138.471 48.1372C138.471 48.137 138.471 48.1368 138.471 48.1367C138.337 47.8951 138.424 47.5908 138.666 47.457C140.438 46.4754 142.222 45.5181 144.017 44.5854C144.262 44.4581 144.564 44.5535 144.691 44.7985C144.691 44.7987 144.691 44.7989 144.691 44.799C146.789 43.7149 148.902 42.6643 151.03 41.6475C151.03 41.6474 151.03 41.6472 151.03 41.647C150.912 41.3976 151.018 41.0993 151.267 40.9808C151.877 40.6911 152.488 40.4042 153.1 40.12C153.35 40.0037 153.648 40.1125 153.764 40.363C153.764 40.3632 153.764 40.3633 153.764 40.3635C154.684 39.9388 155.607 39.5204 156.533 39.1082C156.533 39.1081 156.532 39.1079 156.532 39.1077C156.421 38.8552 156.535 38.5599 156.787 38.4481C158.639 37.6284 160.501 36.8338 162.373 36.0643C162.629 35.9594 162.921 36.0813 163.026 36.3367C163.026 36.3369 163.026 36.3371 163.026 36.3372C165.211 35.445 167.409 34.587 169.621 33.7636C169.621 33.7635 169.621 33.7633 169.621 33.7631C169.525 33.5041 169.658 33.2165 169.917 33.1208C170.55 32.8867 171.184 32.6555 171.819 32.4271C172.079 32.3337 172.365 32.4686 172.458 32.7284C172.458 32.7286 172.458 32.7288 172.459 32.7289C173.413 32.3882 174.369 32.0539 175.328 31.7259C175.328 31.7258 175.328 31.7256 175.328 31.7254C175.239 31.4639 175.379 31.18 175.641 31.0912C177.557 30.4406 179.482 29.8154 181.417 29.2159C181.681 29.1341 181.961 29.2817 182.043 29.5454C182.043 29.5456 182.043 29.5458 182.043 29.546C184.297 28.8528 186.563 28.1945 188.841 27.5712C188.841 27.571 188.841 27.5708 188.841 27.5707C188.769 27.3041 188.926 27.0295 189.193 26.9572C189.844 26.7806 190.496 26.6069 191.149 26.436C191.416 26.3661 191.689 26.526 191.759 26.7931C191.759 26.7933 191.759 26.7935 191.759 26.7937C192.74 26.5394 193.722 26.2915 194.707 26.0501C194.707 26.0499 194.707 26.0498 194.707 26.0496C194.642 25.7812 194.806 25.5109 195.075 25.4457C197.04 24.9685 199.014 24.517 200.995 24.0914C201.265 24.0334 201.531 24.2052 201.589 24.4752C201.589 24.4754 201.589 24.4755 201.589 24.4757C203.894 23.9857 206.21 23.5307 208.536 23.1109C208.536 23.1108 208.536 23.1106 208.536 23.1104C208.487 22.8386 208.668 22.5789 208.94 22.5304C209.605 22.4121 210.269 22.2966 210.935 22.184C211.208 22.1379 211.466 22.3213 211.512 22.5935C211.512 22.5937 211.512 22.5939 211.512 22.5941C212.51 22.4274 213.511 22.2671 214.513 22.1133C214.513 22.1131 214.513 22.113 214.513 22.1128C214.472 21.8398 214.66 21.5849 214.933 21.5437C216.932 21.2415 218.937 20.965 220.949 20.7144C221.223 20.6803 221.473 20.8747 221.507 21.1488C221.507 21.1489 221.507 21.1491 221.507 21.1493C223.845 20.8633 226.191 20.6123 228.546 20.3964C228.546 20.3962 228.546 20.396 228.546 20.3959C228.521 20.1208 228.724 19.8779 228.999 19.8533C229.671 19.7931 230.343 19.7359 231.016 19.6814C231.291 19.6592 231.532 19.8643 231.555 20.1395C231.555 20.1397 231.555 20.1399 231.555 20.1401C232.564 20.0606 233.574 19.9876 234.587 19.9211C234.587 19.9209 234.586 19.9207 234.586 19.9206C234.569 19.645 234.778 19.4074 235.054 19.3898C237.07 19.2616 239.091 19.1589 241.118 19.0819C241.394 19.0714 241.626 19.2866 241.637 19.5626C241.637 19.5627 241.637 19.5629 241.637 19.5631C243.99 19.4787 246.35 19.4289 248.716 19.4141C248.716 19.4139 248.716 19.4137 248.716 19.4136C248.715 19.1374 248.938 18.9126 249.214 18.9115C249.552 18.91 249.89 18.9093 250.228 18.9093C250.566 18.9093 250.904 18.91 251.242 18.9115C251.518 18.9126 251.741 19.1374 251.74 19.4136C251.74 19.4137 251.74 19.4139 251.74 19.4141C252.755 19.4204 253.768 19.4332 254.781 19.4524C254.781 19.4522 254.781 19.452 254.781 19.4519C254.787 19.1758 255.015 18.9567 255.291 18.9625C257.32 19.0051 259.343 19.0734 261.362 19.1671C261.638 19.1799 261.851 19.4139 261.839 19.6897C261.839 19.6899 261.839 19.6901 261.839 19.6902C264.202 19.8049 266.559 19.9545 268.908 20.139C268.908 20.1388 268.908 20.1386 268.908 20.1384C268.931 19.8632 269.172 19.6581 269.447 19.6802C270.12 19.7345 270.793 19.7916 271.465 19.8516C271.74 19.8761 271.943 20.119 271.918 20.3941C271.918 20.3942 271.918 20.3944 271.918 20.3946C272.929 20.4869 273.938 20.5857 274.945 20.6909C274.945 20.6907 274.945 20.6905 274.945 20.6904C274.975 20.4158 275.221 20.2169 275.496 20.2462C277.512 20.4611 279.523 20.7017 281.528 20.9679C281.801 21.0042 281.994 21.2556 281.957 21.5293C281.957 21.5295 281.957 21.5297 281.957 21.5299C284.3 21.8461 286.635 22.1974 288.96 22.5835C288.96 22.5834 288.96 22.5832 288.96 22.583C289.006 22.3107 289.264 22.1271 289.536 22.1729C290.202 22.285 290.868 22.3999 291.532 22.5177C291.804 22.5659 291.985 22.8253 291.937 23.0972C291.937 23.0974 291.937 23.0976 291.937 23.0978C292.935 23.2769 293.932 23.4625 294.927 23.6545C294.927 23.6544 294.927 23.6542 294.927 23.654C294.98 23.383 295.242 23.2062 295.513 23.2591C297.503 23.6476 299.485 24.0619 301.46 24.5016C301.729 24.5616 301.899 24.8288 301.839 25.0983C301.839 25.0985 301.839 25.0987 301.839 25.0989C304.145 25.6177 306.441 26.1716 308.725 26.7601C308.725 26.7599 308.725 26.7597 308.725 26.7596C308.795 26.4923 309.068 26.332 309.335 26.4015C309.989 26.5713 310.641 26.744 311.293 26.9196C311.559 26.9914 311.717 27.2658 311.645 27.5324C311.645 27.5326 311.645 27.5328 311.645 27.5329C312.624 27.7989 313.601 28.0713 314.575 28.3501C314.575 28.3499 314.575 28.3498 314.575 28.3496C314.652 28.0843 314.929 27.9312 315.194 28.0078C317.141 28.5694 319.08 29.1566 321.009 29.7691C321.272 29.8527 321.417 30.1338 321.334 30.397C321.334 30.3971 321.334 30.3973 321.334 30.3975C323.583 31.1173 325.821 31.8716 328.045 32.6604C328.045 32.6602 328.045 32.6601 328.045 32.6599C328.138 32.3998 328.424 32.2643 328.684 32.3572C329.32 32.5843 329.955 32.8143 330.588 33.047C330.848 33.1422 330.98 33.4295 330.885 33.6887C330.885 33.6889 330.885 33.6891 330.885 33.6892C331.836 34.0409 332.784 34.3988 333.73 34.7631C333.73 34.7629 333.731 34.7627 333.731 34.7626C333.83 34.5051 334.12 34.3773 334.378 34.4771C336.266 35.2092 338.145 35.9665 340.012 36.7488C340.267 36.8555 340.387 37.1484 340.28 37.4031C340.28 37.4033 340.28 37.4035 340.28 37.4036C342.456 38.3206 344.617 39.2716 346.763 40.2564C346.763 40.2563 346.763 40.2561 346.763 40.2559C346.879 40.0052 347.176 39.8958 347.427 40.0115C348.04 40.2945 348.651 40.5802 349.262 40.8686C349.511 40.9866 349.618 41.2847 349.5 41.5343C349.5 41.5345 349.5 41.5347 349.5 41.5348C350.415 41.97 351.328 42.4113 352.238 42.8589C352.238 42.8587 352.238 42.8585 352.238 42.8584C352.361 42.6109 352.66 42.5095 352.908 42.6319C354.723 43.5297 356.526 44.4521 358.317 45.3991C358.561 45.5281 358.654 45.8307 358.525 46.0748C358.525 46.075 358.525 46.0751 358.525 46.0753C360.608 47.1829 362.676 48.3238 364.726 49.4978C364.726 49.4976 364.726 49.4975 364.726 49.4973C364.864 49.258 365.169 49.1756 365.409 49.3134C365.994 49.6501 366.577 49.9894 367.159 50.3315C367.397 50.4714 367.477 50.7778 367.337 51.0159C367.337 51.016 367.337 51.0162 367.337 51.0164C368.209 51.5318 369.079 52.0533 369.945 52.5809C369.945 52.5807 369.945 52.5805 369.945 52.5804C370.089 52.3449 370.397 52.2708 370.633 52.415C372.359 53.4714 374.072 54.5518 375.771 55.6561C376.003 55.8066 376.069 56.1163 375.918 56.3478C375.918 56.348 375.918 56.3481 375.918 56.3483C377.893 57.6377 379.849 58.9594 381.787 60.3132C381.787 60.3131 381.787 60.3129 381.787 60.3128C381.946 60.0868 382.258 60.0322 382.484 60.1908C383.036 60.5786 383.587 60.969 384.136 61.3621C384.361 61.5227 384.413 61.8351 384.252 62.0596C384.252 62.0598 384.252 62.0599 384.252 62.0601C385.074 62.6515 385.894 63.2487 386.709 63.8518C386.709 63.8516 386.709 63.8515 386.71 63.8513C386.874 63.6297 387.187 63.5835 387.409 63.7481C389.033 64.9544 390.642 66.1838 392.237 67.4363C392.455 67.6069 392.492 67.9212 392.322 68.1384C392.322 68.1385 392.322 68.1386 392.321 68.1388C394.172 69.5984 396.002 71.0893 397.812 72.6111C397.812 72.6109 397.812 72.6108 397.813 72.6107C397.991 72.3997 398.306 72.3731 398.517 72.5513C399.033 72.9866 399.546 73.4244 400.059 73.8648C400.268 74.0448 400.292 74.3605 400.112 74.5699C400.112 74.57 400.111 74.5702 400.111 74.5703C400.878 75.2324 401.641 75.9001 402.4 76.5735C402.4 76.5734 402.4 76.5732 402.4 76.5731C402.584 76.3669 402.9 76.3487 403.106 76.5325C404.615 77.8774 406.109 79.2447 407.587 80.6341C407.789 80.8232 407.799 81.1396 407.609 81.3408C407.609 81.341 407.609 81.3411 407.609 81.3412C409.322 82.9585 411.014 84.6057 412.685 86.2826C412.685 86.2825 412.685 86.2823 412.685 86.2822C412.881 86.0878 413.198 86.0891 413.392 86.2851C413.535 86.4292 413.678 86.5735 413.82 86.7181C413.915 86.8141 414.01 86.9102 414.104 87.0064C414.343 87.2453 414.581 87.4845 414.819 87.7242C415.013 87.9203 415.012 88.2369 414.816 88.4313C414.816 88.4315 414.816 88.4316 414.816 88.4317C415.531 89.1559 416.24 89.8836 416.943 90.6149C416.943 90.6148 416.943 90.6147 416.943 90.6145C417.143 90.4235 417.459 90.4303 417.65 90.6298C419.051 92.0919 420.428 93.5681 421.783 95.0577C421.969 95.262 421.954 95.5782 421.75 95.764C421.75 95.7641 421.749 95.7643 421.749 95.7644C423.339 97.5202 424.898 99.2948 426.424 101.087C426.424 101.087 426.424 101.087 426.425 101.087C426.635 100.908 426.951 100.934 427.129 101.145C427.565 101.659 427.998 102.174 428.428 102.691C428.605 102.903 428.576 103.218 428.364 103.395C428.364 103.395 428.364 103.395 428.364 103.395C429.01 104.174 429.651 104.957 430.285 105.743C430.285 105.743 430.286 105.743 430.286 105.742C430.501 105.569 430.816 105.604 430.989 105.819C432.26 107.401 433.509 108.995 434.733 110.602C434.9 110.822 434.858 111.136 434.638 111.303C434.638 111.303 434.638 111.303 434.638 111.304C436.066 113.187 437.462 115.088 438.825 117.004C438.825 117.004 438.825 117.004 438.825 117.004C439.051 116.845 439.363 116.898 439.522 117.123C439.912 117.674 440.3 118.227 440.684 118.781C440.842 119.007 440.786 119.319 440.559 119.476C440.559 119.477 440.559 119.477 440.559 119.477C441.134 120.309 441.703 121.143 442.266 121.981C442.266 121.981 442.267 121.981 442.267 121.981C442.496 121.827 442.807 121.889 442.96 122.118C444.088 123.804 445.192 125.502 446.271 127.21C446.418 127.444 446.349 127.753 446.115 127.9C446.115 127.9 446.115 127.9 446.115 127.9C447.371 129.899 448.594 131.913 449.784 133.942C449.784 133.942 449.784 133.942 449.784 133.941C450.023 133.802 450.329 133.883 450.468 134.121C450.809 134.705 451.147 135.29 451.482 135.876C451.619 136.116 451.536 136.422 451.296 136.559C451.296 136.559 451.296 136.559 451.296 136.559C451.797 137.44 452.292 138.324 452.781 139.21C452.781 139.21 452.781 139.21 452.781 139.21C453.023 139.077 453.327 139.165 453.46 139.407C454.434 141.183 455.383 142.968 456.307 144.763C456.434 145.008 456.337 145.31 456.092 145.436C456.091 145.436 456.091 145.436 456.091 145.436C457.168 147.539 458.21 149.654 459.218 151.782C459.219 151.782 459.219 151.781 459.219 151.781C459.469 151.664 459.767 151.771 459.884 152.021C460.172 152.63 460.456 153.241 460.738 153.852C460.853 154.103 460.744 154.4 460.493 154.516C460.493 154.516 460.492 154.516 460.492 154.516C460.915 155.439 461.331 156.363 461.741 157.29C461.741 157.29 461.741 157.29 461.741 157.29C461.994 157.179 462.289 157.294 462.4 157.547C463.214 159.4 464.003 161.261 464.767 163.13C464.871 163.386 464.748 163.678 464.493 163.782C464.493 163.782 464.492 163.783 464.492 163.783C465.381 165.971 466.234 168.171 467.053 170.381C467.053 170.381 467.054 170.381 467.054 170.381C467.313 170.285 467.6 170.418 467.696 170.677C467.929 171.31 468.159 171.943 468.386 172.577C468.479 172.837 468.344 173.123 468.084 173.216C468.083 173.216 468.083 173.216 468.083 173.217C468.423 174.171 468.756 175.127 469.082 176.085C469.083 176.085 469.083 176.085 469.083 176.085C469.344 175.996 469.628 176.136 469.717 176.398C470.366 178.316 470.99 180.241 471.588 182.172C471.67 182.436 471.522 182.716 471.258 182.797C471.258 182.797 471.258 182.798 471.258 182.798C471.951 185.054 472.609 187.319 473.233 189.591C473.233 189.591 473.233 189.591 473.233 189.591C473.5 189.519 473.774 189.676 473.847 189.942C474.024 190.593 474.198 191.245 474.369 191.897C474.439 192.164 474.279 192.437 474.012 192.507C474.012 192.507 474.012 192.507 474.012 192.507C474.266 193.486 474.515 194.467 474.757 195.449C474.757 195.449 474.757 195.449 474.757 195.448C475.025 195.383 475.296 195.547 475.361 195.816C475.841 197.783 476.296 199.756 476.724 201.733C476.782 202.003 476.611 202.269 476.341 202.327C476.341 202.327 476.34 202.327 476.34 202.327C476.835 204.634 477.294 206.947 477.717 209.265C477.717 209.265 477.717 209.265 477.718 209.265C477.989 209.216 478.249 209.397 478.298 209.669C478.418 210.333 478.535 210.997 478.649 211.662C478.696 211.934 478.513 212.192 478.241 212.239C478.241 212.239 478.24 212.239 478.24 212.239C478.409 213.237 478.572 214.236 478.728 215.236C478.728 215.236 478.728 215.236 478.728 215.236C479.001 215.194 479.256 215.381 479.298 215.654C479.606 217.655 479.887 219.658 480.142 221.664C480.177 221.938 479.983 222.189 479.709 222.224C479.709 222.224 479.709 222.224 479.709 222.224C480.001 224.564 480.258 226.908 480.48 229.255C480.48 229.255 480.48 229.255 480.48 229.255C480.755 229.229 480.999 229.432 481.024 229.707C481.086 230.379 481.145 231.05 481.201 231.723C481.224 231.998 481.019 232.239 480.744 232.262C480.744 232.262 480.744 232.262 480.744 232.262C480.826 233.272 480.901 234.282 480.97 235.292C480.97 235.292 480.97 235.292 480.97 235.292C481.246 235.273 481.484 235.482 481.502 235.758C481.636 237.776 481.743 239.796 481.823 241.817C481.835 242.093 481.62 242.326 481.344 242.337C481.344 242.337 481.343 242.337 481.343 242.337C481.432 244.694 481.486 247.052 481.504 249.409C481.504 249.409 481.504 249.409 481.504 249.409C481.78 249.408 482.005 249.631 482.007 249.907C482.01 250.581 482.011 251.255 482.009 251.93C482.008 252.206 481.783 252.429 481.507 252.428C481.507 252.428 481.507 252.428 481.507 252.428C481.501 253.44 481.489 254.453 481.47 255.465C481.471 255.465 481.471 255.465 481.471 255.465C481.747 255.471 481.966 255.699 481.961 255.975C481.919 257.998 481.851 260.02 481.757 262.041C481.744 262.317 481.51 262.53 481.234 262.517C481.234 262.517 481.234 262.517 481.233 262.517C481.118 264.872 480.968 267.226 480.781 269.577C480.782 269.577 480.782 269.577 480.782 269.577C481.057 269.599 481.262 269.84 481.24 270.116C481.185 270.788 481.127 271.46 481.067 272.132C481.042 272.407 480.799 272.609 480.524 272.585C480.524 272.585 480.524 272.585 480.523 272.585C480.43 273.592 480.331 274.6 480.224 275.607C480.225 275.607 480.225 275.607 480.225 275.607C480.5 275.636 480.698 275.883 480.669 276.157C480.452 278.168 480.209 280.177 479.94 282.183C479.903 282.456 479.652 282.648 479.378 282.612C479.378 282.612 479.378 282.612 479.378 282.612C479.059 284.947 478.705 287.279 478.315 289.605C478.316 289.605 478.316 289.605 478.316 289.605C478.588 289.651 478.771 289.909 478.725 290.182C478.612 290.846 478.497 291.511 478.378 292.175C478.329 292.447 478.07 292.628 477.798 292.579C477.798 292.579 477.797 292.579 477.797 292.579C477.617 293.576 477.43 294.571 477.237 295.565C477.237 295.565 477.237 295.565 477.237 295.565C477.508 295.619 477.685 295.882 477.631 296.152C477.241 298.136 476.824 300.115 476.382 302.09C476.322 302.359 476.054 302.529 475.785 302.468C475.785 302.468 475.784 302.468 475.784 302.468C475.264 304.767 474.708 307.059 474.117 309.343C474.117 309.343 474.117 309.343 474.117 309.343C474.384 309.413 474.544 309.686 474.475 309.953C474.304 310.606 474.131 311.257 473.955 311.908C473.883 312.175 473.608 312.332 473.342 312.26C473.342 312.26 473.341 312.26 473.341 312.26C473.075 313.237 472.801 314.213 472.522 315.187C472.522 315.187 472.522 315.187 472.522 315.187C472.788 315.264 472.94 315.541 472.864 315.806C472.302 317.747 471.714 319.682 471.1 321.611C471.016 321.874 470.735 322.019 470.472 321.936C470.472 321.936 470.472 321.936 470.472 321.936C469.752 324.18 468.997 326.415 468.207 328.64C468.207 328.64 468.208 328.64 468.208 328.64C468.468 328.733 468.603 329.019 468.51 329.279C468.284 329.913 468.054 330.547 467.822 331.179C467.726 331.438 467.439 331.571 467.18 331.476C467.18 331.476 467.18 331.476 467.179 331.476C466.828 332.425 466.471 333.372 466.107 334.318C466.107 334.318 466.107 334.318 466.107 334.318C466.365 334.417 466.493 334.707 466.393 334.965C465.662 336.849 464.906 338.726 464.124 340.595C464.018 340.849 463.725 340.969 463.47 340.863C463.47 340.863 463.47 340.863 463.47 340.863C462.555 343.034 461.607 345.194 460.623 347.342C460.623 347.342 460.623 347.342 460.623 347.342C460.874 347.457 460.984 347.754 460.868 348.005C460.586 348.617 460.302 349.228 460.014 349.838C459.896 350.088 459.598 350.195 459.349 350.077C459.349 350.077 459.348 350.077 459.348 350.077C458.915 350.99 458.476 351.901 458.03 352.809C458.031 352.809 458.031 352.809 458.031 352.809C458.279 352.931 458.38 353.231 458.258 353.479C457.363 355.293 456.443 357.097 455.498 358.892C455.369 359.136 455.067 359.23 454.823 359.101C454.822 359.101 454.822 359.101 454.822 359.101C453.721 361.179 452.586 363.244 451.417 365.294C451.417 365.294 451.417 365.294 451.418 365.295C451.657 365.432 451.74 365.737 451.603 365.977C451.267 366.563 450.929 367.147 450.587 367.731C450.448 367.969 450.142 368.049 449.903 367.91C449.903 367.91 449.903 367.91 449.903 367.91C449.391 368.781 448.872 369.649 448.348 370.515C448.348 370.515 448.348 370.515 448.348 370.515C448.584 370.659 448.659 370.966 448.515 371.202C447.465 372.927 446.389 374.641 445.289 376.343C445.139 376.575 444.83 376.642 444.598 376.492C444.598 376.492 444.598 376.492 444.598 376.492C443.317 378.464 442.003 380.421 440.655 382.361C440.655 382.361 440.656 382.361 440.656 382.361C440.882 382.519 440.938 382.831 440.78 383.058C440.394 383.611 440.005 384.162 439.614 384.712C439.454 384.937 439.142 384.99 438.917 384.83C438.917 384.83 438.917 384.83 438.917 384.83C438.327 385.655 437.731 386.478 437.129 387.298C437.129 387.298 437.129 387.298 437.129 387.298C437.351 387.462 437.399 387.775 437.235 387.997C436.038 389.618 434.818 391.227 433.574 392.822C433.404 393.04 433.09 393.079 432.872 392.909C432.872 392.909 432.871 392.909 432.871 392.909C431.42 394.761 429.937 396.596 428.421 398.413C428.421 398.413 428.421 398.413 428.421 398.413C428.633 398.59 428.661 398.906 428.483 399.117C428.051 399.633 427.617 400.146 427.179 400.659C427 400.869 426.685 400.894 426.475 400.715C426.474 400.714 426.474 400.714 426.474 400.714C425.816 401.482 425.151 402.247 424.481 403.009C424.481 403.009 424.481 403.009 424.481 403.009C424.688 403.192 424.708 403.508 424.525 403.715C423.188 405.227 421.828 406.725 420.445 408.208C420.257 408.41 419.94 408.422 419.738 408.233C419.738 408.233 419.738 408.233 419.738 408.233C418.13 409.95 416.491 411.649 414.82 413.327C414.82 413.328 414.82 413.328 414.82 413.328C415.016 413.523 415.016 413.84 414.821 414.035C414.582 414.274 414.342 414.512 414.102 414.751C413.866 414.991 413.629 415.23 413.392 415.47C413.198 415.666 412.881 415.667 412.685 415.472C412.685 415.472 412.685 415.472 412.685 415.472C411.969 416.191 411.248 416.905 410.524 417.613C410.524 417.613 410.525 417.613 410.525 417.613C410.717 417.811 410.713 418.127 410.515 418.32C409.062 419.735 407.592 421.129 406.107 422.5C405.904 422.687 405.588 422.675 405.4 422.472C405.4 422.472 405.4 422.471 405.4 422.471C403.658 424.073 401.895 425.644 400.111 427.184C400.111 427.185 400.112 427.185 400.112 427.185C400.292 427.394 400.268 427.71 400.059 427.89C399.793 428.119 399.526 428.347 399.259 428.574C399.012 428.784 398.765 428.994 398.517 429.203C398.306 429.382 397.991 429.355 397.813 429.144C397.812 429.144 397.812 429.144 397.812 429.144C397.036 429.797 396.255 430.444 395.471 431.085C395.471 431.086 395.471 431.086 395.471 431.086C395.646 431.3 395.614 431.615 395.4 431.789C393.827 433.07 392.24 434.328 390.638 435.563C390.419 435.731 390.106 435.691 389.937 435.472C389.937 435.472 389.937 435.472 389.937 435.472C388.061 436.911 386.166 438.319 384.252 439.695C384.252 439.695 384.252 439.695 384.252 439.695C384.413 439.92 384.361 440.232 384.136 440.393C383.587 440.786 383.036 441.176 382.484 441.564C382.258 441.723 381.946 441.668 381.787 441.442C381.787 441.442 381.787 441.442 381.787 441.441C380.956 442.022 380.121 442.597 379.283 443.166C379.283 443.166 379.283 443.167 379.283 443.167C379.437 443.395 379.377 443.706 379.148 443.861C377.469 444.996 375.775 446.107 374.069 447.194C373.836 447.342 373.527 447.274 373.379 447.041C373.378 447.041 373.378 447.04 373.378 447.04C371.382 448.306 369.368 449.538 367.337 450.738C367.337 450.738 367.337 450.739 367.337 450.739C367.477 450.977 367.397 451.283 367.159 451.423C366.577 451.765 365.994 452.105 365.409 452.441C365.169 452.579 364.864 452.497 364.726 452.257C364.726 452.257 364.726 452.257 364.726 452.257C363.846 452.761 362.962 453.259 362.076 453.751C362.076 453.751 362.076 453.751 362.076 453.751C362.21 453.993 362.122 454.297 361.88 454.43C360.106 455.409 358.32 456.364 356.522 457.294C356.277 457.421 355.975 457.325 355.848 457.08C355.848 457.08 355.848 457.08 355.848 457.079C353.748 458.16 351.632 459.207 349.5 460.22C349.5 460.22 349.5 460.22 349.5 460.22C349.618 460.47 349.511 460.768 349.262 460.886C348.651 461.174 348.04 461.46 347.427 461.743C347.176 461.859 346.879 461.749 346.763 461.499C346.763 461.499 346.763 461.498 346.763 461.498C345.841 461.921 344.917 462.338 343.99 462.748C343.99 462.748 343.99 462.749 343.99 462.749C344.102 463.001 343.987 463.297 343.734 463.408C341.881 464.223 340.016 465.014 338.141 465.78C337.885 465.884 337.593 465.762 337.489 465.506C337.489 465.506 337.489 465.506 337.489 465.505C335.302 466.393 333.1 467.246 330.885 468.065C330.885 468.066 330.885 468.066 330.885 468.066C330.98 468.325 330.848 468.612 330.588 468.708C329.955 468.94 329.32 469.17 328.684 469.397C328.424 469.49 328.138 469.355 328.045 469.095C328.045 469.095 328.045 469.094 328.045 469.094C327.089 469.433 326.132 469.766 325.172 470.092C325.172 470.092 325.172 470.092 325.172 470.092C325.26 470.354 325.119 470.637 324.858 470.726C322.94 471.372 321.012 471.994 319.075 472.59C318.812 472.671 318.532 472.523 318.451 472.259C318.45 472.259 318.45 472.259 318.45 472.259C316.194 472.948 313.925 473.602 311.645 474.222C311.645 474.222 311.645 474.222 311.645 474.222C311.717 474.489 311.559 474.763 311.293 474.835C310.863 474.951 310.433 475.065 310.002 475.179C309.78 475.237 309.558 475.295 309.335 475.353C309.068 475.423 308.795 475.262 308.725 474.995C308.725 474.995 308.725 474.995 308.725 474.995C307.744 475.247 306.76 475.494 305.775 475.734C305.775 475.734 305.775 475.734 305.775 475.734C305.84 476.003 305.675 476.273 305.406 476.338C303.44 476.812 301.465 477.261 299.482 477.684C299.212 477.742 298.947 477.57 298.889 477.3C298.889 477.3 298.889 477.299 298.889 477.299C296.582 477.787 294.264 478.239 291.937 478.657C291.937 478.657 291.937 478.657 291.937 478.657C291.985 478.929 291.804 479.189 291.532 479.237C290.868 479.355 290.202 479.47 289.536 479.582C289.264 479.628 289.006 479.444 288.96 479.172C288.96 479.171 288.96 479.171 288.96 479.171C287.961 479.337 286.96 479.497 285.957 479.65C285.957 479.65 285.957 479.65 285.957 479.65C285.998 479.923 285.81 480.178 285.537 480.219C283.537 480.52 281.53 480.795 279.518 481.045C279.244 481.079 278.994 480.884 278.96 480.61C278.96 480.61 278.96 480.61 278.96 480.61C276.621 480.895 274.273 481.145 271.918 481.36C271.918 481.36 271.918 481.36 271.918 481.361C271.943 481.636 271.74 481.879 271.465 481.903C270.793 481.963 270.12 482.02 269.447 482.074C269.172 482.097 268.931 481.891 268.908 481.616C268.908 481.616 268.908 481.616 268.908 481.616C267.899 481.695 266.887 481.768 265.875 481.834C265.875 481.834 265.875 481.835 265.875 481.835C265.893 482.11 265.683 482.348 265.408 482.365C263.39 482.493 261.368 482.596 259.341 482.673C259.065 482.683 258.833 482.468 258.822 482.192C258.822 482.192 258.822 482.192 258.822 482.192C256.468 482.276 254.107 482.326 251.74 482.341C251.74 482.341 251.74 482.341 251.74 482.341C251.741 482.617 251.518 482.842 251.242 482.843C250.904 482.845 250.566 482.845 250.228 482.845C249.89 482.845 249.552 482.845 249.214 482.843C248.938 482.842 248.715 482.617 248.716 482.341C248.716 482.341 248.716 482.341 248.716 482.341C247.702 482.334 246.688 482.321 245.675 482.302C245.675 482.302 245.675 482.303 245.675 482.303C245.669 482.579 245.441 482.798 245.165 482.792C243.137 482.75 241.113 482.681 239.094 482.588C238.818 482.575 238.605 482.341 238.618 482.065C238.618 482.065 238.618 482.065 238.618 482.064C236.254 481.95 233.898 481.8 231.548 481.616C231.548 481.616 231.548 481.616 231.548 481.616C231.526 481.891 231.285 482.097 231.009 482.074C230.336 482.02 229.664 481.963 228.992 481.903C228.717 481.879 228.513 481.636 228.538 481.361C228.538 481.36 228.538 481.36 228.538 481.36C227.528 481.268 226.519 481.169 225.511 481.064C225.511 481.064 225.511 481.064 225.511 481.064C225.482 481.339 225.235 481.538 224.961 481.509C222.944 481.294 220.933 481.053 218.929 480.787C218.655 480.75 218.463 480.499 218.499 480.225C218.499 480.225 218.499 480.225 218.499 480.225C216.156 479.909 213.821 479.557 211.496 479.171C211.496 479.171 211.496 479.171 211.496 479.172C211.45 479.444 211.192 479.628 210.92 479.582C210.254 479.47 209.589 479.355 208.924 479.237C208.652 479.189 208.471 478.929 208.519 478.657C208.519 478.657 208.519 478.657 208.519 478.657C207.521 478.478 206.524 478.292 205.53 478.1C205.53 478.1 205.53 478.1 205.53 478.101C205.477 478.372 205.214 478.548 204.943 478.496C202.953 478.107 200.971 477.693 198.996 477.253C198.727 477.193 198.557 476.926 198.617 476.656C198.617 476.656 198.617 476.656 198.617 476.656C196.311 476.137 194.015 475.583 191.731 474.995C191.731 474.995 191.731 474.995 191.731 474.995C191.661 475.262 191.388 475.423 191.121 475.353C190.468 475.183 189.815 475.011 189.164 474.835C188.897 474.763 188.739 474.489 188.811 474.222C188.811 474.222 188.811 474.222 188.811 474.222C187.832 473.956 186.856 473.683 185.881 473.405C185.881 473.405 185.881 473.405 185.881 473.405C185.805 473.67 185.527 473.823 185.262 473.747C183.315 473.185 181.377 472.598 179.448 471.986C179.185 471.902 179.039 471.621 179.122 471.358C179.123 471.358 179.123 471.357 179.123 471.357C176.873 470.637 174.636 469.883 172.412 469.094C172.412 469.094 172.412 469.095 172.412 469.095C172.319 469.355 172.033 469.49 171.773 469.397C171.137 469.17 170.502 468.94 169.868 468.708C169.609 468.612 169.476 468.325 169.571 468.066C169.571 468.066 169.571 468.066 169.571 468.065C168.62 467.714 167.672 467.356 166.726 466.992C166.726 466.992 166.726 466.992 166.726 466.992C166.626 467.25 166.336 467.377 166.079 467.278C164.19 466.545 162.312 465.788 160.444 465.006C160.189 464.899 160.069 464.606 160.176 464.352C160.176 464.351 160.176 464.351 160.176 464.351C158 463.434 155.839 462.483 153.693 461.498C153.693 461.498 153.693 461.499 153.693 461.499C153.577 461.749 153.28 461.859 153.03 461.743C152.417 461.46 151.805 461.174 151.195 460.886C150.945 460.768 150.838 460.47 150.956 460.22C150.956 460.22 150.956 460.22 150.956 460.22C150.041 459.785 149.128 459.343 148.218 458.896C148.218 458.896 148.218 458.896 148.218 458.896C148.096 459.144 147.796 459.245 147.548 459.123C145.734 458.225 143.931 457.303 142.14 456.356C141.895 456.227 141.802 455.924 141.931 455.68C141.931 455.68 141.931 455.68 141.932 455.679C139.848 454.572 137.781 453.431 135.731 452.257C135.731 452.257 135.73 452.257 135.73 452.257C135.593 452.497 135.287 452.579 135.048 452.441C134.463 452.105 133.879 451.765 133.297 451.423C133.059 451.283 132.98 450.977 133.119 450.739C133.12 450.739 133.12 450.738 133.12 450.738C132.247 450.223 131.378 449.701 130.511 449.174C130.511 449.174 130.511 449.174 130.511 449.174C130.367 449.41 130.059 449.484 129.824 449.34C128.098 448.283 126.385 447.203 124.685 446.099C124.453 445.948 124.388 445.638 124.538 445.407C124.538 445.407 124.538 445.407 124.539 445.406C122.564 444.117 120.607 442.795 118.669 441.441C118.669 441.442 118.669 441.442 118.669 441.442C118.51 441.668 118.199 441.723 117.973 441.564C117.42 441.176 116.869 440.786 116.32 440.393C116.095 440.232 116.044 439.92 116.204 439.695C116.204 439.695 116.204 439.695 116.205 439.695C115.382 439.103 114.563 438.506 113.747 437.903C113.747 437.903 113.747 437.903 113.747 437.903C113.582 438.125 113.269 438.171 113.047 438.007C111.423 436.8 109.814 435.571 108.219 434.318C108.002 434.148 107.964 433.833 108.134 433.616C108.135 433.616 108.135 433.616 108.135 433.616C106.285 432.156 104.454 430.665 102.644 429.144C102.644 429.144 102.644 429.144 102.644 429.144C102.466 429.355 102.15 429.382 101.939 429.203C101.424 428.768 100.91 428.33 100.398 427.89C100.188 427.71 100.165 427.394 100.345 427.185C100.345 427.185 100.345 427.185 100.345 427.184C99.5784 426.522 98.8156 425.855 98.0566 425.181C98.0565 425.181 98.0564 425.181 98.0562 425.182C97.8725 425.388 97.5565 425.406 97.3503 425.222C95.8411 423.877 94.3471 422.51 92.8688 421.121C92.6676 420.932 92.6578 420.615 92.8469 420.414C92.847 420.414 92.8472 420.414 92.8473 420.413C91.134 418.796 89.4419 417.149 87.7717 415.472C87.7715 415.472 87.7714 415.472 87.7713 415.472C87.5752 415.667 87.2586 415.666 87.0642 415.47C86.8271 415.23 86.5904 414.991 86.3542 414.751C86.1146 414.511 85.8756 414.271 85.6372 414.03C85.4428 413.834 85.4442 413.518 85.6403 413.323C85.6404 413.323 85.6405 413.323 85.6407 413.323Z" fill="black" stroke="black" stroke-linecap="round" stroke-dasharray="2 4 6 8"/>
</svg>
